<?xml version="1.0" encoding="UTF-8" standalone="no"?>
<!-- Created with Inkscape (http://www.inkscape.org/) -->

<svg
   width="470.2691"
   height="451.00281"
   viewBox="0 0 124.42537 119.32782"
   version="1.1"
   id="svg5"
   xml:space="preserve"
   xmlns="http://www.w3.org/2000/svg"
   xmlns:svg="http://www.w3.org/2000/svg"><defs
     id="defs2"><rect
       x="394.48758"
       y="387.35828"
       width="554.18353"
       height="219.34286"
       id="rect436" /><rect
       x="409.85419"
       y="390.29297"
       width="548.64569"
       height="118.29882"
       id="rect7662" /><rect
       x="409.85419"
       y="390.29297"
       width="548.64569"
       height="118.29882"
       id="rect7662-8" /><rect
       x="394.48758"
       y="387.35828"
       width="554.18353"
       height="219.34286"
       id="rect1132" /></defs><g
     id="layer1"
     transform="translate(11.556673,-114.57889)"
     style="display:inline"><g
       id="g1309"
       transform="matrix(1.3507931,0,0,1.3507931,14.980904,-9.8144488)"><g
         id="g1247"
         transform="translate(3.9042253,3.7032298)"><path
           id="rect231"
           style="display:inline;fill:#2979a9;fill-opacity:1;stroke:#2f8ac1;stroke-width:0.5;stroke-dasharray:none;stroke-opacity:1"
           d="m 10.450247,88.635887 c -2.2534634,0 -4.0679693,1.814506 -4.0679693,4.067968 V 118.31883 H -19.232696 c -2.253463,0 -4.067452,1.81399 -4.067452,4.06745 v 20.3383 c 0,2.25346 1.813989,4.06745 4.067452,4.06745 H 6.3822777 V 172.407 c 0,2.25347 1.8145059,4.06797 4.0679693,4.06797 h 20.337776 c 2.253463,0 4.067969,-1.8145 4.067969,-4.06797 v -25.61497 h 25.614974 c 2.253463,0 4.067452,-1.81399 4.067452,-4.06745 v -20.3383 c 0,-2.25346 -1.813989,-4.06745 -4.067452,-4.06745 H 34.855992 V 92.703855 c 0,-2.253462 -1.814506,-4.067968 -4.067969,-4.067968 z" /><g
           id="g1237"><rect
             style="fill:#000000;fill-opacity:1;stroke:#ffffff;stroke-width:6.7;stroke-dasharray:none;stroke-opacity:1;paint-order:stroke fill markers"
             id="rect5532"
             width="34.080116"
             height="72.557671"
             x="102.77563"
             y="34.632019"
             ry="17.040058"
             transform="rotate(45)"
             rx="17.040058" /><path
             id="rect5532-9"
             style="fill:#ffffff;fill-opacity:1;stroke-width:0.234261"
             d="m 47.934982,109.04185 c -3.043802,0 -6.087314,1.22582 -8.419636,3.67782 l -14.872996,15.63625 17.158122,17.36896 14.554672,-15.30087 c 4.664643,-4.904 4.66464,-12.80035 -5e-6,-17.70435 -2.332319,-2.45199 -5.376348,-3.67781 -8.420157,-3.67781 z" /></g><path
           id="rect5670"
           style="fill:#2979a9;fill-opacity:1;stroke:#2f8ac1;stroke-width:0.500203;stroke-linejoin:round;stroke-dasharray:none;stroke-opacity:1;paint-order:stroke fill markers"
           d="m -48.676658,120.38618 c -0.382814,-0.38281 -0.912211,-0.61896 -1.498874,-0.61896 l -30.91317,-2.7e-4 -0.340751,-8.4663 c -0.04808,-1.19454 -1.048624,-2.19509 -2.243164,-2.24316 -1.19454,-0.0481 -2.117438,0.87482 -2.069363,2.06936 l 0.424241,10.54391 c 0.02741,0.68095 0.364466,1.29867 0.870341,1.71299 1.35e-4,1.1e-4 2.38e-4,2.6e-4 3.73e-4,3.7e-4 0.386876,0.42562 0.945185,0.692 1.568324,0.692 l 32.70293,1.2e-4 c 1.173326,0 2.118087,-0.94476 2.118087,-2.11809 l -9e-6,-0.0731 c 0,-0.58667 -0.236152,-1.11607 -0.618965,-1.49888 z"
           transform="matrix(0.69273151,-0.72119557,0.69273151,0.72119557,0,0)" /></g></g></g></svg>
