<?xml version="1.0" encoding="UTF-8" standalone="no"?>
<!-- Created with Inkscape (http://www.inkscape.org/) -->

<svg
   width="1200"
   height="460"
   viewBox="0 0 317.5 121.70833"
   version="1.1"
   id="svg5"
   xml:space="preserve"
   inkscape:version="1.2 (dc2aeda, 2022-05-15)"
   sodipodi:docname="Logo.svg"
   inkscape:export-filename="Logo_GH_social-preview.png"
   inkscape:export-xdpi="96"
   inkscape:export-ydpi="96"
   xmlns:inkscape="http://www.inkscape.org/namespaces/inkscape"
   xmlns:sodipodi="http://sodipodi.sourceforge.net/DTD/sodipodi-0.dtd"
   xmlns="http://www.w3.org/2000/svg"
   xmlns:svg="http://www.w3.org/2000/svg"><sodipodi:namedview
     id="namedview7"
     pagecolor="#ffffff"
     bordercolor="#000000"
     borderopacity="0.25"
     inkscape:showpageshadow="2"
     inkscape:pageopacity="0.0"
     inkscape:pagecheckerboard="0"
     inkscape:deskcolor="#d1d1d1"
     inkscape:document-units="mm"
     showgrid="false"
     inkscape:zoom="0.6317005"
     inkscape:cx="-102.89686"
     inkscape:cy="509.73523"
     inkscape:window-width="2560"
     inkscape:window-height="1308"
     inkscape:window-x="3440"
     inkscape:window-y="25"
     inkscape:window-maximized="0"
     inkscape:current-layer="layer1" /><defs
     id="defs2"><rect
       x="394.48758"
       y="387.35828"
       width="554.18353"
       height="219.34286"
       id="rect436" /><rect
       x="409.85419"
       y="390.29297"
       width="548.64569"
       height="118.29882"
       id="rect7662" /><rect
       x="409.85419"
       y="390.29297"
       width="548.64569"
       height="118.29882"
       id="rect7662-8" /><rect
       x="394.48758"
       y="387.35828"
       width="554.18353"
       height="219.34286"
       id="rect1132" /></defs><g
     inkscape:label="Ebene 1"
     inkscape:groupmode="layer"
     id="layer1"
     transform="translate(12.261744,-113.38864)"
     style="display:inline"><g
       id="g1309"
       transform="matrix(1.3507931,0,0,1.3507931,14.980904,-9.8144488)"><g
         id="g1247"
         inkscape:label="Bild"
         transform="translate(3.9042253,3.7032298)"><path
           id="rect231"
           style="display:inline;fill:#2979a9;fill-opacity:1;stroke:#2f8ac1;stroke-width:0.5;stroke-dasharray:none;stroke-opacity:1"
           d="m 10.450247,88.635887 c -2.2534634,0 -4.0679693,1.814506 -4.0679693,4.067968 V 118.31883 H -19.232696 c -2.253463,0 -4.067452,1.81399 -4.067452,4.06745 v 20.3383 c 0,2.25346 1.813989,4.06745 4.067452,4.06745 H 6.3822777 V 172.407 c 0,2.25347 1.8145059,4.06797 4.0679693,4.06797 h 20.337776 c 2.253463,0 4.067969,-1.8145 4.067969,-4.06797 v -25.61497 h 25.614974 c 2.253463,0 4.067452,-1.81399 4.067452,-4.06745 v -20.3383 c 0,-2.25346 -1.813989,-4.06745 -4.067452,-4.06745 H 34.855992 V 92.703855 c 0,-2.253462 -1.814506,-4.067968 -4.067969,-4.067968 z"
           inkscape:label="Kreuz" /><g
           id="g1237"
           inkscape:label="Pille"><rect
             style="fill:#000000;fill-opacity:1;stroke:#ffffff;stroke-width:6.7;stroke-dasharray:none;stroke-opacity:1;paint-order:stroke fill markers"
             id="rect5532"
             width="34.080116"
             height="72.557671"
             x="102.77563"
             y="34.632019"
             ry="17.040058"
             transform="rotate(45)"
             rx="17.040058"
             inkscape:label="Pille" /><path
             id="rect5532-9"
             style="fill:#ffffff;fill-opacity:1;stroke-width:0.234261"
             d="m 47.934982,109.04185 c -3.043802,0 -6.087314,1.22582 -8.419636,3.67782 l -14.872996,15.63625 17.158122,17.36896 14.554672,-15.30087 c 4.664643,-4.904 4.66464,-12.80035 -5e-6,-17.70435 -2.332319,-2.45199 -5.376348,-3.67781 -8.420157,-3.67781 z"
             inkscape:label="Pillen-Weiß" /></g><path
           id="rect5670"
           style="fill:#2979a9;fill-opacity:1;stroke:#2f8ac1;stroke-width:0.500203;stroke-linejoin:round;stroke-dasharray:none;stroke-opacity:1;paint-order:stroke fill markers"
           d="m -48.676658,120.38618 c -0.382814,-0.38281 -0.912211,-0.61896 -1.498874,-0.61896 l -30.91317,-2.7e-4 -0.340751,-8.4663 c -0.04808,-1.19454 -1.048624,-2.19509 -2.243164,-2.24316 -1.19454,-0.0481 -2.117438,0.87482 -2.069363,2.06936 l 0.424241,10.54391 c 0.02741,0.68095 0.364466,1.29867 0.870341,1.71299 1.35e-4,1.1e-4 2.38e-4,2.6e-4 3.73e-4,3.7e-4 0.386876,0.42562 0.945185,0.692 1.568324,0.692 l 32.70293,1.2e-4 c 1.173326,0 2.118087,-0.94476 2.118087,-2.11809 l -9e-6,-0.0731 c 0,-0.58667 -0.236152,-1.11607 -0.618965,-1.49888 z"
           transform="matrix(0.69273151,-0.72119557,0.69273151,0.72119557,0,0)"
           inkscape:label="Haken" /></g><g
         id="g1220"
         inkscape:label="Text"
         transform="translate(3.9042253,1.0740178)"><g
           aria-label="MEDICATION
TRACKER"
           transform="matrix(0.24670524,0,0,0.26458333,-21.481227,3.8610432)"
           id="text434"
           style="font-weight:bold;font-size:120px;line-height:0.95;font-family:'Jane Roe';-inkscape-font-specification:'Jane Roe, Bold';letter-spacing:-2px;word-spacing:-0.09px;white-space:pre;shape-inside:url(#rect436);display:inline;stroke-width:1.88976;stroke-linejoin:round;paint-order:stroke fill markers"
           inkscape:label="Text-Pfad"><path
             d="m 451.36828,398.06116 h 18.96 v 82.56 h -15.48 v -33.24 q 0,-6.36 0.24,-12.12 0.24,-5.88 1.32,-11.76 h -0.24 q -0.6,2.88 -1.44,6.72 -0.84,3.72 -1.68,7.32 -0.84,3.6 -1.56,6.48 -0.6,2.88 -0.84,4.2 l -8.4,32.4 h -12.12 l -8.4,-32.4 q -0.24,-1.32 -0.96,-4.08 -0.6,-2.88 -1.44,-6.36 -0.84,-3.6 -1.8,-7.32 -0.96,-3.84 -1.68,-6.96 h -0.24 q 1.08,5.88 1.44,11.76 0.48,5.76 0.48,12.12 v 33.24 h -15.48 v -82.56 h 19.56 l 13.32,54.24 q 0.84,3.36 1.08,5.76 0.24,2.28 0.36,5.4 h 0.24 q 0,-3.12 0.24,-5.4 0.24,-2.4 1.08,-5.76 z"
             id="path1134" /><path
             d="m 482.60822,398.06116 h 42.48 v 13.2 h -26.4 v 20.88 h 24.72 v 12.72 h -24.72 v 22.56 h 27.48 v 13.2 h -43.56 z"
             id="path1136" /><path
             d="m 535.32805,398.06116 h 25.2 q 7.44,0 12.72,1.92 5.28,1.8 8.52,6.48 3.36,4.68 4.8,12.72 1.56,7.92 1.56,20.28 0,12.36 -1.56,20.4 -1.44,7.92 -4.8,12.6 -3.36,4.56 -8.76,6.36 -5.28,1.8 -12.84,1.8 h -24.84 z m 24.96,69.36 q 3.6,0 5.88,-0.96 2.4,-1.08 3.6,-4.08 1.32,-3 1.8,-8.4 0.48,-5.52 0.48,-14.4 0,-9.36 -0.48,-15 -0.48,-5.64 -1.8,-8.52 -1.32,-3 -3.6,-3.84 -2.28,-0.96 -5.88,-0.96 h -8.88 v 56.16 z"
             id="path1138" /><path
             d="m 599.92802,398.06116 h 16.08 v 82.56 h -16.08 z"
             id="path1140" /><path
             d="m 680.84788,452.54116 q -0.36,15.72 -7.32,22.56 -6.84,6.72 -20.16,6.72 -7.2,0 -12.36,-2.04 -5.04,-2.16 -8.28,-7.08 -3.24,-4.92 -4.8,-12.96 -1.44,-8.16 -1.44,-20.28 0,-24.36 6.24,-33.48 6.36,-9.12 20.64,-9.12 13.32,0 20.16,6.84 6.96,6.72 7.32,22.44 h -15.84 q -0.24,-9.96 -3.12,-12.96 -2.88,-3.12 -8.28,-3.12 -2.88,0 -5.04,0.96 -2.04,0.84 -3.48,3.84 -1.32,2.88 -1.92,8.64 -0.6,5.64 -0.6,15.24 0,9.84 0.6,15.72 0.72,5.88 2.04,9 1.32,3.12 3.36,4.2 2.04,0.96 4.92,0.96 5.4,0 8.28,-3.24 3,-3.24 3.24,-12.84 z"
             id="path1142" /><path
             d="m 704.88766,398.06116 h 17.64 l 21.36,82.56 h -15.84 l -4.56,-18.72 h -20.64 l -4.68,18.72 h -15.24 z m 1.2,50.64 h 14.4 l -2.76,-11.16 q -1.32,-5.76 -2.28,-11.76 -0.96,-6 -1.68,-14.52 h -0.6 q -0.84,8.52 -1.92,14.52 -1.08,6 -2.52,11.76 z"
             id="path1144" /><path
             d="m 789.04732,398.06116 v 13.2 h -16.8 v 69.36 h -16.08 v -69.36 h -16.8 v -13.2 z"
             id="path1146" /><path
             d="m 794.96725,398.06116 h 16.08 v 82.56 h -16.08 z"
             id="path1148" /><path
             d="m 821.64714,439.34116 q 0,-12.36 1.56,-20.52 1.56,-8.16 4.92,-12.96 3.36,-4.92 8.4,-6.96 5.16,-2.04 12.36,-2.04 7.2,0 12.36,2.04 5.16,2.04 8.4,6.96 3.36,4.8 4.92,12.96 1.56,8.16 1.56,20.52 0,12.36 -1.56,20.64 -1.56,8.16 -4.92,13.08 -3.24,4.8 -8.4,6.84 -5.16,1.92 -12.36,1.92 -7.2,0 -12.36,-1.92 -5.04,-2.04 -8.4,-6.84 -3.36,-4.92 -4.92,-13.08 -1.56,-8.28 -1.56,-20.64 z m 16.08,0.12 q 0,8.88 0.48,14.52 0.6,5.64 1.92,8.88 1.32,3.24 3.36,4.56 2.16,1.2 5.4,1.2 6.48,0 8.76,-5.64 2.4,-5.76 2.4,-23.4 0,-9.36 -0.6,-15.12 -0.48,-5.88 -1.8,-9 -1.2,-3.24 -3.36,-4.32 -2.16,-1.08 -5.4,-1.08 -3.24,0 -5.4,1.08 -2.04,1.08 -3.36,4.32 -1.32,3.12 -1.92,8.88 -0.48,5.76 -0.48,15.12 z"
             id="path1150" /><path
             d="m 903.40694,480.62116 h -15.48 v -82.56 h 14.52 l 17.52,36.72 6.72,16.92 h 0.24 q -0.96,-4.56 -1.68,-9.6 -0.6,-5.16 -0.6,-14.16 v -29.88 h 15.48 v 82.56 h -13.8 l -14.76,-29.76 -10.2,-24.48 h -0.24 q 0.96,4.44 1.56,9.36 0.72,4.92 0.72,15.12 z"
             id="path1152" /><path
             d="m 445.12828,512.06116 v 13.2 h -16.8 v 69.36 h -16.08 v -69.36 h -16.8 v -13.2 z"
             id="path1154" /><path
             d="m 450.44822,512.06116 h 19.44 q 17.28,0 23.64,5.76 6.36,5.76 6.36,19.2 0,7.92 -2.64,13.56 -2.64,5.64 -9.36,9.12 l 14.16,34.92 h -16.2 l -13.2,-32.4 h -6.12 v 32.4 h -16.08 z m 20.88,36.96 q 6.48,0 9.48,-2.16 3,-2.28 3,-9.96 0,-7.08 -3,-9.24 -2.88,-2.28 -10.44,-2.28 h -3.84 v 23.64 z"
             id="path1156" /><path
             d="m 525.96809,512.06116 h 17.64 l 21.36,82.56 h -15.84 l -4.56,-18.72 h -20.64 l -4.68,18.72 h -15.24 z m 1.2,50.64 h 14.4 l -2.76,-11.16 q -1.32,-5.76 -2.28,-11.76 -0.96,-6 -1.68,-14.52 h -0.6 q -0.84,8.52 -1.92,14.52 -1.08,6 -2.52,11.76 z"
             id="path1158" /><path
             d="m 621.88772,566.54116 q -0.36,15.72 -7.32,22.56 -6.84,6.72 -20.16,6.72 -7.2,0 -12.36,-2.04 -5.04,-2.16 -8.28,-7.08 -3.24,-4.92 -4.8,-12.96 -1.44,-8.16 -1.44,-20.28 0,-24.36 6.24,-33.48 6.36,-9.12 20.64,-9.12 13.32,0 20.16,6.84 6.96,6.72 7.32,22.44 h -15.84 q -0.24,-9.96 -3.12,-12.96 -2.88,-3.12 -8.28,-3.12 -2.88,0 -5.04,0.96 -2.04,0.84 -3.48,3.84 -1.32,2.88 -1.92,8.64 -0.6,5.64 -0.6,15.24 0,9.84 0.6,15.72 0.72,5.88 2.04,9 1.32,3.12 3.36,4.2 2.04,0.96 4.92,0.96 5.4,0 8.28,-3.24 3,-3.24 3.24,-12.84 z"
             id="path1160" /><path
             d="m 645.92751,512.06116 v 37.2 l 20.76,-37.2 h 16.44 l -22.56,40.32 23.64,42.24 h -16.44 l -21.84,-39 v 39 h -15.84 v -82.56 z"
             id="path1162" /><path
             d="m 689.88738,512.06116 h 42.48 v 13.2 h -26.4 v 20.88 h 24.72 v 12.72 h -24.72 v 22.56 h 27.48 v 13.2 h -43.56 z"
             id="path1164" /><path
             d="m 741.8872,512.06116 h 19.44 q 17.28,0 23.64,5.76 6.36,5.76 6.36,19.2 0,7.92 -2.64,13.56 -2.64,5.64 -9.36,9.12 l 14.16,34.92 h -16.2 l -13.2,-32.4 h -6.12 v 32.4 h -16.08 z m 20.88,36.96 q 6.48,0 9.48,-2.16 3,-2.28 3,-9.96 0,-7.08 -3,-9.24 -2.88,-2.28 -10.44,-2.28 h -3.84 v 23.64 z"
             id="path1166" /></g><text
           xml:space="preserve"
           transform="matrix(0.24670524,0,0,0.26458333,-21.481227,3.8610432)"
           id="text1130"
           style="font-style:normal;font-variant:normal;font-weight:bold;font-stretch:normal;font-size:120px;line-height:0.95;font-family:'Jane Roe';-inkscape-font-specification:'Jane Roe, Bold';font-variant-ligatures:normal;font-variant-caps:normal;font-variant-numeric:normal;font-variant-east-asian:normal;letter-spacing:-2px;word-spacing:-0.09px;white-space:pre;shape-inside:url(#rect1132);display:none;fill:#000000;stroke-width:1.88976;stroke-linejoin:round;paint-order:stroke fill markers"
           inkscape:label="Text" /></g></g></g></svg>
